<mxfile host="www.draw.io" modified="2020-02-28T06:15:27.543Z" agent="Mozilla/5.0 (Windows NT 10.0; Win64; x64) AppleWebKit/537.36 (KHTML, like Gecko) Chrome/80.0.3987.122 Safari/537.36" etag="bVEXGqm2Oyt_nJa75Pkm" version="12.7.9" type="github">
  <diagram id="cBGpxrRVRMOUotOfauqm" name="第 1 页">
    <mxGraphModel dx="1422" dy="762" grid="1" gridSize="10" guides="1" tooltips="1" connect="1" arrows="1" fold="1" page="1" pageScale="1" pageWidth="1169" pageHeight="1654" math="0" shadow="0">
      <root>
        <mxCell id="0" />
        <mxCell id="1" parent="0" />
        <mxCell id="5kvmcNJ4GCfsxjgHRscD-5" style="edgeStyle=orthogonalEdgeStyle;rounded=0;orthogonalLoop=1;jettySize=auto;html=1;" edge="1" parent="1">
          <mxGeometry relative="1" as="geometry">
            <mxPoint x="380" y="230" as="targetPoint" />
            <mxPoint x="280" y="230" as="sourcePoint" />
          </mxGeometry>
        </mxCell>
        <mxCell id="5kvmcNJ4GCfsxjgHRscD-12" style="edgeStyle=orthogonalEdgeStyle;rounded=0;orthogonalLoop=1;jettySize=auto;html=1;entryX=1;entryY=0.5;entryDx=0;entryDy=0;" edge="1" parent="1" source="5kvmcNJ4GCfsxjgHRscD-1" target="5kvmcNJ4GCfsxjgHRscD-11">
          <mxGeometry relative="1" as="geometry">
            <Array as="points">
              <mxPoint x="170" y="230" />
            </Array>
          </mxGeometry>
        </mxCell>
        <mxCell id="5kvmcNJ4GCfsxjgHRscD-1" value="用户" style="shape=umlActor;verticalLabelPosition=bottom;labelBackgroundColor=#ffffff;verticalAlign=top;html=1;" vertex="1" parent="1">
          <mxGeometry x="250" y="200" width="30" height="60" as="geometry" />
        </mxCell>
        <mxCell id="5kvmcNJ4GCfsxjgHRscD-3" value="注册" style="ellipse;whiteSpace=wrap;html=1;" vertex="1" parent="1">
          <mxGeometry x="120" y="70" width="140" height="70" as="geometry" />
        </mxCell>
        <mxCell id="5kvmcNJ4GCfsxjgHRscD-6" value="登入/退出" style="ellipse;whiteSpace=wrap;html=1;" vertex="1" parent="1">
          <mxGeometry x="380" y="190" width="140" height="70" as="geometry" />
        </mxCell>
        <mxCell id="5kvmcNJ4GCfsxjgHRscD-8" value="评论/收藏" style="ellipse;whiteSpace=wrap;html=1;" vertex="1" parent="1">
          <mxGeometry x="320" y="300" width="140" height="70" as="geometry" />
        </mxCell>
        <mxCell id="5kvmcNJ4GCfsxjgHRscD-11" value="搜索" style="ellipse;whiteSpace=wrap;html=1;" vertex="1" parent="1">
          <mxGeometry x="30" y="190" width="140" height="70" as="geometry" />
        </mxCell>
        <mxCell id="5kvmcNJ4GCfsxjgHRscD-17" value="支付(功能暂定)" style="ellipse;whiteSpace=wrap;html=1;" vertex="1" parent="1">
          <mxGeometry x="120" y="320" width="140" height="70" as="geometry" />
        </mxCell>
        <mxCell id="5kvmcNJ4GCfsxjgHRscD-25" value="注册" style="shape=umlActor;verticalLabelPosition=bottom;labelBackgroundColor=#ffffff;verticalAlign=top;html=1;" vertex="1" parent="1">
          <mxGeometry x="830" y="250" width="30" height="60" as="geometry" />
        </mxCell>
        <mxCell id="5kvmcNJ4GCfsxjgHRscD-26" value="账户、密码（修改）" style="ellipse;whiteSpace=wrap;html=1;" vertex="1" parent="1">
          <mxGeometry x="620" y="220" width="140" height="70" as="geometry" />
        </mxCell>
        <mxCell id="5kvmcNJ4GCfsxjgHRscD-27" value="行业" style="ellipse;whiteSpace=wrap;html=1;" vertex="1" parent="1">
          <mxGeometry x="875" y="110" width="140" height="70" as="geometry" />
        </mxCell>
        <mxCell id="5kvmcNJ4GCfsxjgHRscD-28" value="第三方绑定" style="ellipse;whiteSpace=wrap;html=1;" vertex="1" parent="1">
          <mxGeometry x="950" y="235" width="140" height="70" as="geometry" />
        </mxCell>
        <mxCell id="5kvmcNJ4GCfsxjgHRscD-37" value="兴趣" style="ellipse;whiteSpace=wrap;html=1;" vertex="1" parent="1">
          <mxGeometry x="705" y="100" width="140" height="70" as="geometry" />
        </mxCell>
        <mxCell id="5kvmcNJ4GCfsxjgHRscD-39" style="edgeStyle=orthogonalEdgeStyle;rounded=0;orthogonalLoop=1;jettySize=auto;html=1;exitX=0.5;exitY=0;exitDx=0;exitDy=0;exitPerimeter=0;entryX=0.5;entryY=1;entryDx=0;entryDy=0;" edge="1" parent="1" source="5kvmcNJ4GCfsxjgHRscD-42" target="5kvmcNJ4GCfsxjgHRscD-44">
          <mxGeometry relative="1" as="geometry">
            <mxPoint x="315" y="570" as="targetPoint" />
            <mxPoint x="280" y="580" as="sourcePoint" />
            <Array as="points" />
          </mxGeometry>
        </mxCell>
        <mxCell id="5kvmcNJ4GCfsxjgHRscD-40" style="edgeStyle=orthogonalEdgeStyle;rounded=0;orthogonalLoop=1;jettySize=auto;html=1;exitX=1;exitY=0.3333333333333333;exitDx=0;exitDy=0;exitPerimeter=0;" edge="1" parent="1" source="5kvmcNJ4GCfsxjgHRscD-42" target="5kvmcNJ4GCfsxjgHRscD-45">
          <mxGeometry relative="1" as="geometry">
            <mxPoint x="370" y="650" as="targetPoint" />
            <Array as="points">
              <mxPoint x="360" y="630" />
            </Array>
          </mxGeometry>
        </mxCell>
        <mxCell id="5kvmcNJ4GCfsxjgHRscD-41" style="edgeStyle=orthogonalEdgeStyle;rounded=0;orthogonalLoop=1;jettySize=auto;html=1;exitX=0;exitY=0.3333333333333333;exitDx=0;exitDy=0;exitPerimeter=0;entryX=1;entryY=0.5;entryDx=0;entryDy=0;" edge="1" parent="1" source="5kvmcNJ4GCfsxjgHRscD-42" target="5kvmcNJ4GCfsxjgHRscD-46">
          <mxGeometry relative="1" as="geometry">
            <mxPoint x="250" y="710" as="targetPoint" />
            <Array as="points">
              <mxPoint x="215" y="630" />
              <mxPoint x="215" y="630" />
            </Array>
          </mxGeometry>
        </mxCell>
        <mxCell id="5kvmcNJ4GCfsxjgHRscD-42" value="评论/收藏" style="shape=umlActor;verticalLabelPosition=bottom;labelBackgroundColor=#ffffff;verticalAlign=top;html=1;" vertex="1" parent="1">
          <mxGeometry x="250" y="610" width="30" height="60" as="geometry" />
        </mxCell>
        <mxCell id="5kvmcNJ4GCfsxjgHRscD-44" value="查看历史评论" style="ellipse;whiteSpace=wrap;html=1;" vertex="1" parent="1">
          <mxGeometry x="195" y="500" width="140" height="70" as="geometry" />
        </mxCell>
        <mxCell id="5kvmcNJ4GCfsxjgHRscD-45" value="收藏作品展示" style="ellipse;whiteSpace=wrap;html=1;" vertex="1" parent="1">
          <mxGeometry x="335" y="595" width="140" height="70" as="geometry" />
        </mxCell>
        <mxCell id="5kvmcNJ4GCfsxjgHRscD-46" value="取消收藏/删除评论" style="ellipse;whiteSpace=wrap;html=1;" vertex="1" parent="1">
          <mxGeometry x="55" y="595" width="140" height="70" as="geometry" />
        </mxCell>
        <mxCell id="5kvmcNJ4GCfsxjgHRscD-47" style="edgeStyle=orthogonalEdgeStyle;rounded=0;orthogonalLoop=1;jettySize=auto;html=1;exitX=0.5;exitY=0;exitDx=0;exitDy=0;exitPerimeter=0;entryX=0.5;entryY=1;entryDx=0;entryDy=0;" edge="1" parent="1" source="5kvmcNJ4GCfsxjgHRscD-50" target="5kvmcNJ4GCfsxjgHRscD-51">
          <mxGeometry relative="1" as="geometry">
            <mxPoint x="910" y="570" as="targetPoint" />
            <mxPoint x="875" y="580" as="sourcePoint" />
            <Array as="points" />
          </mxGeometry>
        </mxCell>
        <mxCell id="5kvmcNJ4GCfsxjgHRscD-48" style="edgeStyle=orthogonalEdgeStyle;rounded=0;orthogonalLoop=1;jettySize=auto;html=1;exitX=1;exitY=0.3333333333333333;exitDx=0;exitDy=0;exitPerimeter=0;" edge="1" parent="1" source="5kvmcNJ4GCfsxjgHRscD-50" target="5kvmcNJ4GCfsxjgHRscD-52">
          <mxGeometry relative="1" as="geometry">
            <mxPoint x="965" y="650" as="targetPoint" />
            <Array as="points">
              <mxPoint x="955" y="630" />
            </Array>
          </mxGeometry>
        </mxCell>
        <mxCell id="5kvmcNJ4GCfsxjgHRscD-49" style="edgeStyle=orthogonalEdgeStyle;rounded=0;orthogonalLoop=1;jettySize=auto;html=1;exitX=0;exitY=0.3333333333333333;exitDx=0;exitDy=0;exitPerimeter=0;entryX=1;entryY=0.5;entryDx=0;entryDy=0;" edge="1" parent="1" source="5kvmcNJ4GCfsxjgHRscD-50" target="5kvmcNJ4GCfsxjgHRscD-53">
          <mxGeometry relative="1" as="geometry">
            <mxPoint x="845" y="710" as="targetPoint" />
            <Array as="points">
              <mxPoint x="810" y="630" />
              <mxPoint x="810" y="630" />
            </Array>
          </mxGeometry>
        </mxCell>
        <mxCell id="5kvmcNJ4GCfsxjgHRscD-50" value="搜索" style="shape=umlActor;verticalLabelPosition=bottom;labelBackgroundColor=#ffffff;verticalAlign=top;html=1;" vertex="1" parent="1">
          <mxGeometry x="845" y="610" width="30" height="60" as="geometry" />
        </mxCell>
        <mxCell id="5kvmcNJ4GCfsxjgHRscD-51" value="类型搜索" style="ellipse;whiteSpace=wrap;html=1;" vertex="1" parent="1">
          <mxGeometry x="790" y="500" width="140" height="70" as="geometry" />
        </mxCell>
        <mxCell id="5kvmcNJ4GCfsxjgHRscD-52" value="区域搜索" style="ellipse;whiteSpace=wrap;html=1;" vertex="1" parent="1">
          <mxGeometry x="930" y="595" width="140" height="70" as="geometry" />
        </mxCell>
        <mxCell id="5kvmcNJ4GCfsxjgHRscD-53" value="作品、作者搜索" style="ellipse;whiteSpace=wrap;html=1;" vertex="1" parent="1">
          <mxGeometry x="650" y="595" width="140" height="70" as="geometry" />
        </mxCell>
        <mxCell id="5kvmcNJ4GCfsxjgHRscD-55" value="" style="endArrow=open;endFill=1;endSize=12;html=1;exitX=1;exitY=0.3333333333333333;exitDx=0;exitDy=0;exitPerimeter=0;entryX=0.036;entryY=0.7;entryDx=0;entryDy=0;entryPerimeter=0;" edge="1" parent="1" source="5kvmcNJ4GCfsxjgHRscD-1" target="5kvmcNJ4GCfsxjgHRscD-56">
          <mxGeometry width="160" relative="1" as="geometry">
            <mxPoint x="330" y="170" as="sourcePoint" />
            <mxPoint x="390" y="150" as="targetPoint" />
          </mxGeometry>
        </mxCell>
        <mxCell id="5kvmcNJ4GCfsxjgHRscD-56" value="浏览作品及作者" style="ellipse;whiteSpace=wrap;html=1;" vertex="1" parent="1">
          <mxGeometry x="335" y="90" width="140" height="70" as="geometry" />
        </mxCell>
        <mxCell id="5kvmcNJ4GCfsxjgHRscD-57" value="" style="endArrow=open;endFill=1;endSize=12;html=1;exitX=0.367;exitY=0.267;exitDx=0;exitDy=0;exitPerimeter=0;entryX=0.664;entryY=0.986;entryDx=0;entryDy=0;entryPerimeter=0;" edge="1" parent="1" source="5kvmcNJ4GCfsxjgHRscD-1" target="5kvmcNJ4GCfsxjgHRscD-3">
          <mxGeometry width="160" relative="1" as="geometry">
            <mxPoint x="290" y="230" as="sourcePoint" />
            <mxPoint x="350.03999999999996" y="149" as="targetPoint" />
          </mxGeometry>
        </mxCell>
        <mxCell id="5kvmcNJ4GCfsxjgHRscD-58" value="" style="endArrow=open;endFill=1;endSize=12;html=1;exitX=0;exitY=1;exitDx=0;exitDy=0;exitPerimeter=0;entryX=0.664;entryY=-0.014;entryDx=0;entryDy=0;entryPerimeter=0;" edge="1" parent="1" source="5kvmcNJ4GCfsxjgHRscD-1" target="5kvmcNJ4GCfsxjgHRscD-17">
          <mxGeometry width="160" relative="1" as="geometry">
            <mxPoint x="271.01" y="226.01999999999998" as="sourcePoint" />
            <mxPoint x="222.96000000000004" y="149.01999999999998" as="targetPoint" />
          </mxGeometry>
        </mxCell>
        <mxCell id="5kvmcNJ4GCfsxjgHRscD-59" value="" style="endArrow=open;endFill=1;endSize=12;html=1;exitX=1;exitY=1;exitDx=0;exitDy=0;exitPerimeter=0;" edge="1" parent="1" source="5kvmcNJ4GCfsxjgHRscD-1" target="5kvmcNJ4GCfsxjgHRscD-8">
          <mxGeometry width="160" relative="1" as="geometry">
            <mxPoint x="281.01" y="236.01999999999998" as="sourcePoint" />
            <mxPoint x="232.96000000000004" y="159.01999999999998" as="targetPoint" />
          </mxGeometry>
        </mxCell>
        <mxCell id="5kvmcNJ4GCfsxjgHRscD-60" value="" style="endArrow=open;endFill=1;endSize=12;html=1;exitX=0;exitY=0.3333333333333333;exitDx=0;exitDy=0;exitPerimeter=0;entryX=1;entryY=0.5;entryDx=0;entryDy=0;" edge="1" parent="1" source="5kvmcNJ4GCfsxjgHRscD-25" target="5kvmcNJ4GCfsxjgHRscD-26">
          <mxGeometry width="160" relative="1" as="geometry">
            <mxPoint x="291.01" y="246.01999999999998" as="sourcePoint" />
            <mxPoint x="242.96000000000004" y="169.01999999999998" as="targetPoint" />
          </mxGeometry>
        </mxCell>
        <mxCell id="5kvmcNJ4GCfsxjgHRscD-61" value="" style="endArrow=open;endFill=1;endSize=12;html=1;exitX=1;exitY=0.3333333333333333;exitDx=0;exitDy=0;exitPerimeter=0;entryX=0;entryY=0.5;entryDx=0;entryDy=0;" edge="1" parent="1" source="5kvmcNJ4GCfsxjgHRscD-25" target="5kvmcNJ4GCfsxjgHRscD-28">
          <mxGeometry width="160" relative="1" as="geometry">
            <mxPoint x="840" y="280" as="sourcePoint" />
            <mxPoint x="786" y="256" as="targetPoint" />
          </mxGeometry>
        </mxCell>
        <mxCell id="5kvmcNJ4GCfsxjgHRscD-62" value="" style="endArrow=open;endFill=1;endSize=12;html=1;exitX=0.75;exitY=0.1;exitDx=0;exitDy=0;exitPerimeter=0;entryX=0.3;entryY=1.029;entryDx=0;entryDy=0;entryPerimeter=0;" edge="1" parent="1" source="5kvmcNJ4GCfsxjgHRscD-25" target="5kvmcNJ4GCfsxjgHRscD-27">
          <mxGeometry width="160" relative="1" as="geometry">
            <mxPoint x="870" y="280" as="sourcePoint" />
            <mxPoint x="960" y="280" as="targetPoint" />
          </mxGeometry>
        </mxCell>
        <mxCell id="5kvmcNJ4GCfsxjgHRscD-63" value="" style="endArrow=open;endFill=1;endSize=12;html=1;exitX=0.767;exitY=0.85;exitDx=0;exitDy=0;exitPerimeter=0;entryX=0.6;entryY=1.071;entryDx=0;entryDy=0;entryPerimeter=0;" edge="1" parent="1" source="5kvmcNJ4GCfsxjgHRscD-25" target="5kvmcNJ4GCfsxjgHRscD-37">
          <mxGeometry width="160" relative="1" as="geometry">
            <mxPoint x="880" y="290" as="sourcePoint" />
            <mxPoint x="970" y="290" as="targetPoint" />
          </mxGeometry>
        </mxCell>
      </root>
    </mxGraphModel>
  </diagram>
</mxfile>
